<svg xmlns:dc="http://purl.org/dc/elements/1.1/" xmlns:cc="http://creativecommons.org/ns#" xmlns:rdf="http://www.w3.org/1999/02/22-rdf-syntax-ns#" xmlns:svg="http://www.w3.org/2000/svg" xmlns="http://www.w3.org/2000/svg" width="16" height="16" fill="currentColor" class="bi bi-arrow-down-up" viewBox="0 0 16 16" version="1.1" id="svg845"><metadata id="metadata851"><rdf:RDF><cc:Work><dc:format>image/svg+xml</dc:format><dc:type rdf:resource="http://purl.org/dc/dcmitype/StillImage"/><dc:title/></cc:Work></rdf:RDF></metadata><path fill-rule="evenodd" d="M 11.5,15 C 11.776142,15 12,14.776142 12,14.5 V 2.707 l 3.146,3.147 c 0.472,0.4719998 1.18,-0.2360002 0.708,-0.708 l -4,-4 c -0.195364,-0.19585838 -0.512636,-0.19585838 -0.708,0 l -4,4 C 6.6740002,5.6179998 7.3820002,6.3259998 7.854,5.854 L 11,2.707 V 14.5 c 0,0.276142 0.223858,0.5 0.5,0.5 z" id="path1985" fill="#808000"/><path fill-rule="evenodd" d="M 4.5,1 C 4.7761424,1 5,1.2238576 5,1.5 v 11.793 l 3.146,-3.147 c 0.4719998,-0.4719998 1.1799998,0.236 0.708,0.708 l -4,4 c -0.1953639,0.195858 -0.5126361,0.195858 -0.708,0 l -4,-4 C -0.32599979,10.382 0.38200021,9.6740002 0.854,10.146 L 4,13.293 V 1.5 C 4,1.2238576 4.2238576,1 4.5,1 Z" id="path843" fill="#800080"/></svg>